Coordinates
version=1
nRows=22
nColumns=24
inDegrees=yes

Units are S.I. units (second, meters, Newtons, ...)
Angles are in degrees.

endheader
time	pelvis_tilt	pelvis_list	pelvis_rotation	pelvis_tx	pelvis_ty	pelvis_tz	hip_flexion_r	hip_adduction_r	hip_rotation_r	knee_angle_r	ankle_angle_r	subtalar_angle_r	mtp_angle_r	hip_flexion_l	hip_adduction_l	hip_rotation_l	knee_angle_l	ankle_angle_l	subtalar_angle_l	mtp_angle_l	lumbar_extension	lumbar_bending	lumbar_rotation
      1.06700000	     -2.07145975	     -1.04625565	     -4.12115242	     -0.15199962	      0.96986419	      0.33442939	    -12.46786611	      3.51825962	     -5.10907750	     -9.42213887	     14.79105076	      5.72543184	      5.72563993	     25.51753801	     -0.40242098	     -5.76689227	     -0.67742082	      0.75620235	     -2.59110322	     -0.68932215	     -0.70249237	      4.87517997	      7.18701875
      1.07116667	     -2.14748460	     -0.97463788	     -4.16837626	     -0.14620676	      0.96918996	      0.33414008	    -12.49810578	      3.35968133	     -5.16707488	     -9.89716521	     14.85342208	      5.87420875	      5.86303413	     25.49324454	     -0.27652654	     -5.76598977	     -0.57220991	      0.54900002	     -2.89025209	     -0.59078004	     -0.58730409	      4.80167022	      7.32002077
      1.07533333	     -2.20733084	     -0.88558233	     -4.19884310	     -0.14034467	      0.96860601	      0.33387375	    -12.57230126	      3.19955764	     -5.14539419	    -10.31323451	     14.78871369	      5.81991544	      5.90910830	     25.48622938	     -0.13807548	     -5.86148332	     -0.61216100	      0.37101851	     -3.01163695	     -0.55672695	     -0.47130375	      4.69160662	      7.32839473
      1.07950000	     -2.30655568	     -0.79697236	     -4.22944971	     -0.13452793	      0.96800913	      0.33356708	    -12.54986086	      3.03516263	     -5.14781387	    -10.83441208	     14.78832927	      5.82315185	      6.04631661	     25.52365198	      0.00249068	     -5.82470087	     -0.71612872	      0.10418950	     -3.39374996	     -0.44871855	     -0.33610117	      4.60551325	      7.41109152
      1.08366667	     -2.40128052	     -0.68589854	     -4.24547310	     -0.12864784	      0.96747878	      0.33324700	    -12.53589251	      2.85388548	     -5.13106774	    -11.34332826	     14.71336487	      5.75402236	      6.18754828	     25.57388409	      0.16676371	     -5.81766261	     -0.91801000	     -0.17813554	     -3.72511539	     -0.33236695	     -0.19171476	      4.48486095	      7.44639459
      1.08783333	     -2.49004661	     -0.57090697	     -4.25106658	     -0.12274538	      0.96700484	      0.33292350	    -12.50942706	      2.67291260	     -5.10523531	    -11.88828855	     14.61127155	      5.63610812	      6.34228866	     25.62727447	      0.33571163	     -5.78327531	     -1.19394763	     -0.47860982	     -4.09656851	     -0.20092803	     -0.04527456	      4.34648397	      7.47404426
      1.09200000	     -2.59370252	     -0.44677823	     -4.24693971	     -0.11681689	      0.96656598	      0.33258227	    -12.44891692	      2.48729575	     -5.06870071	    -12.46444169	     14.47630236	      5.47966565	      6.49940261	     25.70955218	      0.51430779	     -5.73461940	     -1.54380154	     -0.80752064	     -4.48799121	     -0.06720547	      0.11909356	      4.19916366	      7.49048503
      1.09616667	     -2.69433833	     -0.31649312	     -4.23535647	     -0.11087237	      0.96618284	      0.33222927	    -12.36800397	      2.29735118	     -5.02806430	    -13.08268613	     14.31032524	      5.28315575	      6.67973004	     25.79478809	      0.70057454	     -5.65783329	     -1.94772369	     -1.15942315	     -4.92735332	      0.08288674	      0.28544600	      4.04129040	      7.49994305
      1.10033333	     -2.76731889	     -0.15160368	     -4.21347598	     -0.10485651	      0.96588931	      0.33187005	    -12.30386964	      2.07142077	     -4.99810204	    -13.72190975	     14.06712957	      5.05813368	      6.77750162	     25.85371377	      0.92192968	     -5.62205961	     -2.39884852	     -1.47591527	     -5.23205954	      0.16305264	      0.41998260	      3.82926265	      7.48929135
      1.10450000	     -2.91311431	     -0.04464510	     -4.17603637	     -0.09892029	      0.96554870	      0.33147052	    -12.12907486	      1.92215917	     -4.91541447	    -14.41845784	     13.87152374	      4.77906497	      7.00391130	     26.01172371	      1.09198662	     -5.44757029	     -2.91150995	     -1.92541980	     -5.85358740	      0.33356428	      0.63935852	      3.71632390	      7.48881721
      1.10866667	     -3.00883390	      0.10154275	     -4.13883273	     -0.09292090	      0.96533145	      0.33105382	    -11.97942202	      1.72445352	     -4.84645895	    -15.16519393	     13.58031254	      4.42877601	      7.41262669	     26.09188797	      1.30660436	     -5.25918845	     -3.40907048	     -2.31541166	     -6.42757060	      0.62700085	      0.78678787	      3.55153611	      7.46572559
      1.11283333	     -3.12839243	      0.26232099	     -4.07525398	     -0.08686399	      0.96513534	      0.33062300	    -11.80012805	      1.52203924	     -4.79023739	    -15.90970535	     13.23917452	      4.13366313	      7.64699751	     26.23844442	      1.53198783	     -5.19319228	     -4.00541197	     -2.76378751	     -6.80046721	      0.77827727	      0.98655795	      3.35874238	      7.43610928
      1.11700000	     -3.19696139	      0.40673650	     -4.00148240	     -0.08079986	      0.96505395	      0.33018041	    -11.64178904	      1.33219514	     -4.75980507	    -16.70456677	     12.72858192	      3.67998424	     11.90699153	     26.30835545	      1.75168671	     -5.03534480	     -4.57699208	     -3.19551814	     -7.30444025	      3.26710592	      1.13001581	      3.16021423	      7.39530932
      1.12116667	     -3.27804932	      0.59949426	     -3.94306218	     -0.07468497	      0.96500810	      0.32974381	    -11.42713680	      1.08486623	     -4.72805798	    -17.58691579	     12.32079074	      3.36790932	     11.92455355	     26.39735819	      2.00613229	     -4.98567530	     -5.18154019	     -3.56578068	     -7.60356501	      3.26108114	      1.29599173	      2.90518622	      7.36158454
      1.12533333	     -3.41214611	      0.72223806	     -3.86684915	     -0.06867487	      0.96493960	      0.32926253	    -11.11433374	      0.92844418	     -4.63601710	    -18.53345992	     11.86761808	      2.95840243	     12.00616854	     26.54790161	      2.20315041	     -4.77511787	     -5.79873046	     -4.00703431	     -8.14810229	      3.25774878	      1.49908302	      2.77409682	      7.30977045
      1.12950000	     -3.50175130	      0.88187542	     -3.78547075	     -0.06259169	      0.96498644	      0.32877831	    -10.82552302	      0.72792411	     -4.56794798	    -19.51383758	     11.33085422	      2.53325320	     12.12390521	     26.63761193	      2.43772472	     -4.61838919	     -6.40771145	     -4.38459837	     -8.55740940	      3.25719848	      1.66262568	      2.57479098	      7.25647100
      1.13366667	     -3.59231181	      1.04546513	     -3.70010368	     -0.05649865	      0.96507949	      0.32828917	    -10.49813818	      0.52218780	     -4.50635215	    -20.55314490	     10.73785180	      2.10670812	     12.28219056	     26.72585351	      2.67533538	     -4.47007372	     -7.02353884	     -4.72545632	     -8.93410392	      3.25642841	      1.83448463	      2.36357005	      7.20103567
      1.13783333	     -3.65835853	      1.21737825	     -3.60871363	     -0.05039838	      0.96524236	      0.32778657	    -10.16068973	      0.30520120	     -4.45605475	    -21.64651755	     10.08005861	      1.67513982	     12.48236379	     26.77962799	      2.92485586	     -4.32588960	     -7.63111455	     -5.03546181	     -9.28058821	      3.25332046	      1.97320710	      2.14472955	      7.13856924
      1.14200000	     -3.67643328	      1.43278745	     -3.50764458	     -0.04424188	      0.96550578	      0.32726524	     -9.84969197	      0.03249417	     -4.44444097	    -22.77574904	      9.38143392	      1.29847957	     12.59286763	     26.78572985	      3.21871490	     -4.25785108	     -8.26179234	     -5.23751592	     -9.49467773	      3.24937522	      2.05264250	      1.85521073	      7.08898521
      1.14616667	     -3.77115967	      1.57752133	     -3.41834214	     -0.03819482	      0.96572202	      0.32673817	     -9.39280024	     -0.16068458	     -4.38210699	    -23.98956874	      8.52738640	      0.70292124	     17.64960897	     26.85232393	      3.44118446	     -4.07088144	     -8.84775661	     -5.50539309	     -9.87812899	      3.07526292	      2.22476597	      1.68748406	      7.00812679
      1.15033333	     -3.80400275	      1.77528808	     -3.32821110	     -0.03208984	      0.96604917	      0.32621248	     -8.97222576	     -0.42277287	     -4.36180823	    -25.25466443	      7.66629541	      0.34791990	     17.67027979	     26.83863883	      3.71405668	     -3.96894653	     -9.41500821	     -5.68342150	    -10.06949000	      3.06906452	      2.32526442	      1.43245596	      6.95089077
      1.15450000	     -3.83516787	      1.96667959	     -3.23546200	     -0.02601236	      0.96640892	      0.32567488	     -8.51353547	     -0.67911836	     -4.33636623	    -26.57477999	      6.76069372	     -0.04748917	     17.73064705	     26.81912203	      3.98285199	     -3.86052968	     -9.98127545	     -5.82186967	    -10.29241561	      3.05605584	      2.42223413	      1.19498203	      6.88379058
